<svg width="94" height="28" viewBox="0 0 94 28" fill="none" xmlns="http://www.w3.org/2000/svg">
<path d="M12.9999 1.1666C5.91222 1.1666 0.166565 6.91227 0.166565 13.9999C0.166565 21.0876 5.91222 26.8333 12.9999 26.8333C19.3588 26.8333 24.6375 22.2084 25.6558 16.1388H25.5637C24.6139 19.8289 21.2642 22.5555 17.2777 22.5555C12.5526 22.5555 8.72212 18.725 8.72212 13.9999C8.72212 9.27482 12.5526 5.44437 17.2777 5.44437C21.2642 5.44437 24.6139 8.17097 25.5637 11.861H25.6558C24.6375 5.79149 19.3588 1.1666 12.9999 1.1666Z" fill="#A4BCFD"/>
<path d="M0.166565 13.9999C0.166565 6.91227 5.91224 1.1666 12.9999 1.1666C19.3588 1.1666 24.6375 5.79149 25.6558 11.861H17.0081C16.0584 8.17097 12.7087 5.44437 8.72212 5.44437C3.99702 5.44437 0.166565 9.27483 0.166565 13.9999Z" fill="#3538CD"/>
<path d="M0.166443 13.9987C0.166443 21.0864 5.91212 26.832 12.9998 26.832C19.3587 26.832 24.6374 22.2071 25.6557 16.1376H17.008C16.0583 19.8277 12.7085 22.5543 8.722 22.5543C3.9969 22.5543 0.166443 18.7238 0.166443 13.9987Z" fill="#3538CD"/>
<path d="M44.1726 11.9616C43.8072 9.32251 41.7771 7.79126 39.1438 7.79126C36.0407 7.79126 33.7032 10.0533 33.7032 13.8931C33.7032 17.727 36.0117 19.9949 39.1438 19.9949C41.9685 19.9949 43.842 18.1678 44.1726 15.8999L42.0033 15.8883C41.7307 17.2804 40.5939 18.0634 39.1728 18.0634C37.2472 18.0634 35.8667 16.6191 35.8667 13.8931C35.8667 11.2134 37.2356 9.72272 39.1786 9.72272C40.6229 9.72272 41.7539 10.5405 42.0033 11.9616H44.1726Z" fill="#101828"/>
<path d="M48.6141 20.0123C50.0119 20.0123 50.8472 19.3568 51.23 18.6086H51.2996V19.8325H53.318V13.8699C53.318 11.515 51.3982 10.8074 49.6987 10.8074C47.8253 10.8074 46.3868 11.6426 45.9228 13.2666L47.8833 13.545C48.0921 12.936 48.6837 12.414 49.7103 12.414C50.6847 12.414 51.2184 12.9128 51.2184 13.7887V13.8235C51.2184 14.4267 50.5861 14.4557 49.0143 14.6239C47.2858 14.8095 45.6328 15.3257 45.6328 17.3326C45.6328 19.0842 46.9146 20.0123 48.6141 20.0123ZM49.1593 18.4694C48.2835 18.4694 47.657 18.0692 47.657 17.2978C47.657 16.4915 48.3589 16.1551 49.2985 16.0217C49.8495 15.9463 50.9516 15.8071 51.2242 15.5867V16.6365C51.2242 17.6284 50.4237 18.4694 49.1593 18.4694Z" fill="#101828"/>
<path d="M59.878 10.9234H58.1206V8.78889H56.0209V10.9234H54.7565V12.5474H56.0209V17.5008C56.0093 19.177 57.2274 20.0007 58.805 19.9543C59.4024 19.9369 59.8142 19.8209 60.0405 19.7455L59.6866 18.104C59.5706 18.133 59.3328 18.1852 59.0718 18.1852C58.544 18.1852 58.1206 17.9996 58.1206 17.1528V12.5474H59.878V10.9234Z" fill="#101828"/>
<path d="M64.1977 20.0123C65.5956 20.0123 66.4308 19.3568 66.8136 18.6086H66.8832V19.8325H68.9017V13.8699C68.9017 11.515 66.9818 10.8074 65.2824 10.8074C63.4089 10.8074 61.9705 11.6426 61.5064 13.2666L63.4669 13.545C63.6757 12.936 64.2673 12.414 65.294 12.414C66.2684 12.414 66.802 12.9128 66.802 13.7887V13.8235C66.802 14.4267 66.1698 14.4557 64.5979 14.6239C62.8695 14.8095 61.2164 15.3257 61.2164 17.3326C61.2164 19.0842 62.4983 20.0123 64.1977 20.0123ZM64.743 18.4694C63.8671 18.4694 63.2407 18.0692 63.2407 17.2978C63.2407 16.4915 63.9425 16.1551 64.8822 16.0217C65.4332 15.9463 66.5352 15.8071 66.8078 15.5867V16.6365C66.8078 17.6284 66.0074 18.4694 64.743 18.4694Z" fill="#101828"/>
<path d="M73.1126 7.95367H71.013V19.8325H73.1126V7.95367Z" fill="#101828"/>
<path d="M79.1579 20.0065C81.768 20.0065 83.4268 18.1678 83.4268 15.4127C83.4268 12.6518 81.768 10.8074 79.1579 10.8074C76.5478 10.8074 74.8889 12.6518 74.8889 15.4127C74.8889 18.1678 76.5478 20.0065 79.1579 20.0065ZM79.1695 18.3244C77.7252 18.3244 77.0176 17.0368 77.0176 15.4069C77.0176 13.7771 77.7252 12.472 79.1695 12.472C80.5905 12.472 81.2981 13.7771 81.2981 15.4069C81.2981 17.0368 80.5905 18.3244 79.1695 18.3244Z" fill="#101828"/>
<path d="M89.0834 23.359C91.4905 23.359 93.2654 22.2569 93.2654 19.9775V10.9234H91.1947V12.3966H91.0787C90.7597 11.7528 90.0927 10.8074 88.5208 10.8074C86.4618 10.8074 84.8435 12.4198 84.8435 15.3489C84.8435 18.2548 86.4618 19.7049 88.515 19.7049C90.0405 19.7049 90.7539 18.887 91.0787 18.2316H91.1831V19.9195C91.1831 21.2303 90.3131 21.7697 89.1182 21.7697C87.8538 21.7697 87.297 21.1723 87.0418 20.6503L85.1509 21.1085C85.5337 22.3555 86.8156 23.359 89.0834 23.359ZM89.1008 18.0576C87.7146 18.0576 86.9838 16.9788 86.9838 15.3373C86.9838 13.7191 87.703 12.53 89.1008 12.53C90.4523 12.53 91.1947 13.6495 91.1947 15.3373C91.1947 17.0368 90.4407 18.0576 89.1008 18.0576Z" fill="#101828"/>
</svg>
