<svg width="94" height="28" viewBox="0 0 94 28" fill="none" xmlns="http://www.w3.org/2000/svg">
<g style="mix-blend-mode:luminosity">
<path d="M13.3332 1.16656C6.24553 1.16656 0.499878 6.91224 0.499878 13.9999C0.499878 21.0876 6.24553 26.8332 13.3332 26.8332C19.6921 26.8332 24.9708 22.2083 25.9891 16.1388H25.897C24.9472 19.8289 21.5975 22.5555 17.611 22.5555C12.8859 22.5555 9.05543 18.725 9.05543 13.9999C9.05543 9.27479 12.8859 5.44434 17.611 5.44434C21.5975 5.44434 24.9472 8.17094 25.897 11.861H25.9891C24.9708 5.79146 19.6921 1.16656 13.3332 1.16656Z" fill="#A4BCFD"/>
<path d="M0.499878 13.9999C0.499878 6.91224 6.24556 1.16656 13.3332 1.16656C19.6921 1.16656 24.9708 5.79146 25.9891 11.861H17.3414C16.3917 8.17094 13.042 5.44434 9.05543 5.44434C4.33033 5.44434 0.499878 9.2748 0.499878 13.9999Z" fill="#3538CD"/>
<path d="M0.499756 13.9987C0.499756 21.0864 6.24543 26.832 13.3331 26.832C19.692 26.832 24.9707 22.2071 25.989 16.1376H17.3413C16.3916 19.8277 13.0419 22.5543 9.05531 22.5543C4.33021 22.5543 0.499756 18.7238 0.499756 13.9987Z" fill="#3538CD"/>
<path d="M44.5059 11.9616C44.1405 9.32251 42.1104 7.79126 39.4771 7.79126C36.374 7.79126 34.0366 10.0533 34.0366 13.8931C34.0366 17.727 36.345 19.9949 39.4771 19.9949C42.3018 19.9949 44.1753 18.1678 44.5059 15.8999L42.3366 15.8883C42.064 17.2804 40.9272 18.0634 39.5061 18.0634C37.5805 18.0634 36.2 16.6191 36.2 13.8931C36.2 11.2134 37.5689 9.72272 39.5119 9.72272C40.9562 9.72272 42.0872 10.5405 42.3366 11.9616H44.5059Z" fill="#101828"/>
<path d="M48.9474 20.0123C50.3452 20.0123 51.1805 19.3568 51.5633 18.6086H51.6329V19.8325H53.6513V13.8699C53.6513 11.515 51.7315 10.8074 50.032 10.8074C48.1586 10.8074 46.7201 11.6426 46.2561 13.2666L48.2166 13.545C48.4254 12.936 49.017 12.414 50.0436 12.414C51.0181 12.414 51.5517 12.9128 51.5517 13.7887V13.8235C51.5517 14.4267 50.9195 14.4557 49.3476 14.6239C47.6192 14.8095 45.9661 15.3257 45.9661 17.3326C45.9661 19.0842 47.2479 20.0123 48.9474 20.0123ZM49.4926 18.4694C48.6168 18.4694 47.9904 18.0692 47.9904 17.2978C47.9904 16.4915 48.6922 16.1551 49.6318 16.0217C50.1828 15.9463 51.2849 15.8071 51.5575 15.5867V16.6365C51.5575 17.6284 50.7571 18.4694 49.4926 18.4694Z" fill="#101828"/>
<path d="M60.2114 10.9234H58.4539V8.78889H56.3542V10.9234H55.0898V12.5474H56.3542V17.5008C56.3426 19.177 57.5607 20.0007 59.1383 19.9543C59.7357 19.9369 60.1476 19.8209 60.3738 19.7455L60.02 18.104C59.9039 18.133 59.6661 18.1852 59.4051 18.1852C58.8773 18.1852 58.4539 17.9996 58.4539 17.1528V12.5474H60.2114V10.9234Z" fill="#101828"/>
<path d="M64.531 20.0123C65.9289 20.0123 66.7641 19.3568 67.1469 18.6086H67.2165V19.8325H69.235V13.8699C69.235 11.515 67.3151 10.8074 65.6157 10.8074C63.7422 10.8074 62.3038 11.6426 61.8398 13.2666L63.8002 13.545C64.009 12.936 64.6007 12.414 65.6273 12.414C66.6017 12.414 67.1353 12.9128 67.1353 13.7887V13.8235C67.1353 14.4267 66.5031 14.4557 64.9313 14.6239C63.2028 14.8095 61.5498 15.3257 61.5498 17.3326C61.5498 19.0842 62.8316 20.0123 64.531 20.0123ZM65.0763 18.4694C64.2004 18.4694 63.574 18.0692 63.574 17.2978C63.574 16.4915 64.2758 16.1551 65.2155 16.0217C65.7665 15.9463 66.8685 15.8071 67.1411 15.5867V16.6365C67.1411 17.6284 66.3407 18.4694 65.0763 18.4694Z" fill="#101828"/>
<path d="M73.4459 7.95367H71.3463V19.8325H73.4459V7.95367Z" fill="#101828"/>
<path d="M79.4912 20.0065C82.1013 20.0065 83.7601 18.1678 83.7601 15.4127C83.7601 12.6518 82.1013 10.8074 79.4912 10.8074C76.8811 10.8074 75.2222 12.6518 75.2222 15.4127C75.2222 18.1678 76.8811 20.0065 79.4912 20.0065ZM79.5028 18.3244C78.0585 18.3244 77.3509 17.0368 77.3509 15.4069C77.3509 13.7771 78.0585 12.472 79.5028 12.472C80.9238 12.472 81.6315 13.7771 81.6315 15.4069C81.6315 17.0368 80.9238 18.3244 79.5028 18.3244Z" fill="#101828"/>
<path d="M89.4168 23.359C91.8238 23.359 93.5987 22.2569 93.5987 19.9775V10.9234H91.528V12.3966H91.412C91.093 11.7528 90.426 10.8074 88.8541 10.8074C86.7951 10.8074 85.1768 12.4198 85.1768 15.3489C85.1768 18.2548 86.7951 19.7048 88.8483 19.7048C90.3738 19.7048 91.0872 18.887 91.412 18.2316H91.5164V19.9195C91.5164 21.2303 90.6464 21.7697 89.4516 21.7697C88.1871 21.7697 87.6303 21.1723 87.3751 20.6503L85.4842 21.1085C85.867 22.3555 87.1489 23.359 89.4168 23.359ZM89.4342 18.0576C88.0479 18.0576 87.3171 16.9788 87.3171 15.3373C87.3171 13.7191 88.0363 12.53 89.4342 12.53C90.7856 12.53 91.528 13.6495 91.528 15.3373C91.528 17.0368 90.774 18.0576 89.4342 18.0576Z" fill="#101828"/>
</g>
</svg>
