<svg width="108" height="28" viewBox="0 0 108 28" fill="none" xmlns="http://www.w3.org/2000/svg">
<g style="mix-blend-mode:luminosity">
<path d="M9.91662 19.4998C14.9792 19.4998 19.0833 15.3957 19.0833 10.3331C19.0833 9.75933 19.0306 9.19788 18.9297 8.65332C18.3852 8.55247 17.8237 8.49976 17.2499 8.49976C12.1873 8.49976 8.08328 12.6038 8.08328 17.6664C8.08328 18.2402 8.136 18.8016 8.23685 19.3462C8.7814 19.447 9.34285 19.4998 9.91662 19.4998Z" fill="#175CD3"/>
<path fill-rule="evenodd" clip-rule="evenodd" d="M8.23688 19.3463C3.9765 18.5573 0.749985 14.8221 0.749985 10.3332C0.749985 5.27062 4.85404 1.16656 9.91665 1.16656C14.4055 1.16656 18.1408 4.39308 18.9298 8.65346C18.3852 8.55261 17.8237 8.4999 17.25 8.4999C12.1874 8.4999 8.08332 12.604 8.08332 17.6666C8.08332 18.2403 8.13603 18.8018 8.23688 19.3463Z" fill="#1570EF"/>
<path fill-rule="evenodd" clip-rule="evenodd" d="M9.91665 19.4983C14.9793 19.4983 19.0833 15.3942 19.0833 10.3316C19.0833 9.75786 19.0306 9.19641 18.9298 8.65186C23.1901 9.44086 26.4167 13.1761 26.4167 17.665C26.4167 22.7276 22.3126 26.8316 17.25 26.8316C12.7611 26.8316 9.02588 23.6051 8.23688 19.3447C8.78144 19.4456 9.34289 19.4983 9.91665 19.4983Z" fill="#2E90FA"/>
<path d="M44.0496 16.8596C43.723 17.9158 43.1513 18.7053 42.3346 19.228C41.518 19.7397 40.5652 19.9956 39.4763 19.9956C38.4092 19.9956 37.4837 19.7724 36.6997 19.326C35.9265 18.8795 35.3277 18.2425 34.903 17.415C34.4892 16.5874 34.2823 15.5965 34.2823 14.4423C34.2823 13.2881 34.4947 12.2972 34.9193 11.4696C35.344 10.6421 35.9429 10.0051 36.716 9.55862C37.4891 9.11218 38.3983 8.88896 39.4437 8.88896C40.5434 8.88896 41.4853 9.12307 42.2693 9.59129C43.0642 10.0486 43.6086 10.7455 43.9026 11.682L41.861 12.5476C41.6759 11.8943 41.3928 11.4315 41.0116 11.1593C40.6305 10.8762 40.1405 10.7346 39.5417 10.7346C38.6488 10.7346 37.9355 11.0558 37.402 11.6983C36.8793 12.3298 36.618 13.2445 36.618 14.4423C36.618 15.6292 36.8684 16.5438 37.3693 17.1863C37.8702 17.8287 38.5943 18.15 39.5417 18.15C40.1297 18.15 40.636 17.9921 41.0607 17.6763C41.4962 17.3605 41.8011 16.8814 41.9753 16.239L44.0496 16.8596Z" fill="#101828"/>
<path d="M46.8691 10.4896C45.9435 10.4896 45.4807 10.0922 45.4807 9.29729C45.4807 8.49151 45.9435 8.08862 46.8691 8.08862C47.7946 8.08862 48.2574 8.49151 48.2574 9.29729C48.2574 10.0922 47.7946 10.4896 46.8691 10.4896ZM47.9797 11.6656V19.8323H45.7421V11.6656H47.9797Z" fill="#101828"/>
<path d="M50.3518 19.8323V11.6656H52.2954L52.4424 13.2663C52.6493 12.711 52.9596 12.2808 53.3734 11.976C53.7981 11.6602 54.3317 11.5023 54.9741 11.5023C55.3552 11.5023 55.6492 11.5622 55.8561 11.682L55.5948 13.5603C55.4859 13.5276 55.3498 13.5004 55.1864 13.4786C55.034 13.446 54.8325 13.4296 54.5821 13.4296C54.2445 13.4296 53.9233 13.5113 53.6184 13.6746C53.3244 13.8271 53.0794 14.0666 52.8834 14.3933C52.6874 14.7091 52.5894 15.112 52.5894 15.602V19.8323H50.3518Z" fill="#101828"/>
<path d="M60.7905 11.5023C61.8794 11.5023 62.7233 11.7364 63.3222 12.2046C63.932 12.6728 64.3349 13.2391 64.5309 13.9033L62.4402 14.6546C62.2224 13.6637 61.6834 13.1683 60.8232 13.1683C60.2025 13.1683 59.718 13.3861 59.3695 13.8216C59.032 14.2572 58.8632 14.9051 58.8632 15.7653C58.8632 16.6364 59.0374 17.2843 59.3859 17.709C59.7452 18.1227 60.2298 18.3296 60.8395 18.3296C61.7869 18.3296 62.3531 17.8451 62.5382 16.876L64.5635 17.5293C64.3784 18.2588 63.9647 18.8523 63.3222 19.3096C62.6907 19.767 61.8685 19.9956 60.8559 19.9956C60.0065 19.9956 59.2607 19.8268 58.6182 19.4893C57.9867 19.1517 57.4967 18.6672 57.1482 18.0356C56.7998 17.4041 56.6255 16.6418 56.6255 15.749C56.6255 14.8561 56.7998 14.0938 57.1482 13.4623C57.5075 12.8307 57.9975 12.3462 58.6182 12.0086C59.2498 11.6711 59.9739 11.5023 60.7905 11.5023Z" fill="#101828"/>
<path d="M70.0263 11.5023C70.8429 11.5023 71.5671 11.6711 72.1986 12.0086C72.8302 12.3462 73.3202 12.8307 73.6686 13.4623C74.0279 14.0938 74.2076 14.8561 74.2076 15.749C74.2076 16.6418 74.0279 17.4041 73.6686 18.0356C73.3202 18.6672 72.8302 19.1517 72.1986 19.4893C71.5671 19.8268 70.8429 19.9956 70.0263 19.9956C69.1987 19.9956 68.4692 19.8268 67.8376 19.4893C67.2169 19.1517 66.7269 18.6672 66.3676 18.0356C66.0192 17.4041 65.8449 16.6418 65.8449 15.749C65.8449 14.8561 66.0192 14.0938 66.3676 13.4623C66.7269 12.8307 67.2169 12.3462 67.8376 12.0086C68.4692 11.6711 69.1987 11.5023 70.0263 11.5023ZM70.0263 13.1683C69.4165 13.1683 68.9374 13.3861 68.5889 13.8216C68.2514 14.2463 68.0826 14.8887 68.0826 15.749C68.0826 16.6092 68.2514 17.2571 68.5889 17.6926C68.9374 18.1173 69.4165 18.3296 70.0263 18.3296C70.6252 18.3296 71.0934 18.1173 71.4309 17.6926C71.7794 17.2571 71.9536 16.6092 71.9536 15.749C71.9536 14.8887 71.7794 14.2463 71.4309 13.8216C71.0934 13.3861 70.6252 13.1683 70.0263 13.1683Z" fill="#101828"/>
<path d="M79.8039 11.5023C80.6206 11.5023 81.3447 11.6711 81.9763 12.0086C82.6078 12.3462 83.0978 12.8307 83.4463 13.4623C83.8056 14.0938 83.9853 14.8561 83.9853 15.749C83.9853 16.6418 83.8056 17.4041 83.4463 18.0356C83.0978 18.6672 82.6078 19.1517 81.9763 19.4893C81.3447 19.8268 80.6206 19.9956 79.8039 19.9956C78.9764 19.9956 78.2468 19.8268 77.6153 19.4893C76.9946 19.1517 76.5046 18.6672 76.1453 18.0356C75.7968 17.4041 75.6226 16.6418 75.6226 15.749C75.6226 14.8561 75.7968 14.0938 76.1453 13.4623C76.5046 12.8307 76.9946 12.3462 77.6153 12.0086C78.2468 11.6711 78.9764 11.5023 79.8039 11.5023ZM79.8039 13.1683C79.1942 13.1683 78.7151 13.3861 78.3666 13.8216C78.0291 14.2463 77.8603 14.8887 77.8603 15.749C77.8603 16.6092 78.0291 17.2571 78.3666 17.6926C78.7151 18.1173 79.1942 18.3296 79.8039 18.3296C80.4028 18.3296 80.8711 18.1173 81.2086 17.6926C81.5571 17.2571 81.7313 16.6092 81.7313 15.749C81.7313 14.8887 81.5571 14.2463 81.2086 13.8216C80.8711 13.3861 80.4028 13.1683 79.8039 13.1683Z" fill="#101828"/>
<path d="M88.0626 8.08862V17.317C88.0626 17.6981 88.1279 17.9648 88.2586 18.1173C88.3893 18.2697 88.6071 18.346 88.9119 18.346C89.0971 18.346 89.2495 18.3351 89.3693 18.3133C89.4891 18.2915 89.6415 18.248 89.8266 18.1826L89.6306 19.6526C89.4455 19.7615 89.2114 19.8432 88.9283 19.8976C88.6561 19.963 88.3838 19.9956 88.1116 19.9956C87.3167 19.9956 86.7342 19.8051 86.3639 19.424C86.0046 19.032 85.8249 18.4113 85.8249 17.562V8.08862H88.0626Z" fill="#101828"/>
<path d="M94.8628 19.9956C93.5779 19.9956 92.5489 19.6254 91.7758 18.885C91.0027 18.1336 90.6161 17.0883 90.6161 15.749C90.6161 14.8561 90.7903 14.0938 91.1388 13.4623C91.4872 12.8307 91.9718 12.3462 92.5924 12.0086C93.224 11.6711 93.9427 11.5023 94.7484 11.5023C95.576 11.5023 96.2783 11.6711 96.8554 12.0086C97.4325 12.3353 97.8735 12.7872 98.1784 13.3643C98.4833 13.9305 98.6358 14.5784 98.6358 15.308C98.6358 15.5257 98.6303 15.7326 98.6194 15.9286C98.6085 16.1246 98.5922 16.2988 98.5704 16.4513H92.8048C92.8919 17.0828 93.1097 17.5565 93.4581 17.8723C93.8174 18.1772 94.2802 18.3296 94.8464 18.3296C95.3255 18.3296 95.7121 18.2371 96.0061 18.052C96.3001 17.8668 96.5288 17.611 96.6921 17.2843L98.4724 17.9703C98.2111 18.6127 97.7538 19.1136 97.1004 19.473C96.4471 19.8214 95.7012 19.9956 94.8628 19.9956ZM94.7321 13.152C93.6759 13.152 93.0389 13.7345 92.8211 14.8996H96.4961C96.4308 14.3334 96.2457 13.9033 95.9408 13.6093C95.6468 13.3044 95.2439 13.152 94.7321 13.152Z" fill="#101828"/>
<path d="M103.799 19.9956C102.971 19.9956 102.214 19.8486 101.528 19.5546C100.853 19.2606 100.303 18.8468 99.8788 18.3133L101.169 17.0066C101.43 17.3986 101.779 17.7198 102.214 17.9703C102.65 18.2207 103.167 18.346 103.766 18.346C104.191 18.346 104.528 18.2861 104.779 18.1663C105.04 18.0356 105.171 17.8342 105.171 17.562C105.171 17.3877 105.111 17.2407 104.991 17.121C104.871 16.9903 104.632 16.8868 104.272 16.8106L102.835 16.5166C101.888 16.3206 101.213 16.0266 100.81 15.6346C100.418 15.2317 100.222 14.7145 100.222 14.083C100.222 13.6365 100.352 13.2173 100.614 12.8253C100.886 12.4333 101.289 12.1175 101.822 11.878C102.356 11.6275 103.02 11.5023 103.815 11.5023C105.47 11.5023 106.657 12.0086 107.376 13.0213L106.036 14.328C105.797 13.9468 105.481 13.6583 105.089 13.4623C104.708 13.2554 104.305 13.152 103.88 13.152C102.922 13.152 102.443 13.4187 102.443 13.9523C102.443 14.1265 102.519 14.279 102.672 14.4096C102.824 14.5294 103.102 14.6328 103.505 14.72L105.171 15.063C105.977 15.2263 106.554 15.504 106.902 15.896C107.251 16.2771 107.425 16.7398 107.425 17.2843C107.425 18.0683 107.109 18.7162 106.477 19.228C105.857 19.7397 104.964 19.9956 103.799 19.9956Z" fill="#101828"/>
</g>
</svg>
