<svg width="86" height="28" viewBox="0 0 86 28" fill="none" xmlns="http://www.w3.org/2000/svg">
<g style="mix-blend-mode:luminosity">
<path d="M7.74522 13.0171C8.22487 11.2273 10.0646 9.38753 11.8545 8.90788L23.013 5.9175C24.8029 5.43784 25.865 6.49994 25.3853 8.28977L22.3949 19.4483C21.9153 21.2382 20.0755 23.0779 18.2857 23.5576L7.12711 26.548C5.33729 27.0276 4.27518 25.9655 4.75484 24.1757L7.74522 13.0171Z" fill="#9E77ED"/>
<path d="M3.27174 8.54472C3.75139 6.75489 5.59117 4.91512 7.38099 4.43546L18.5396 1.44508C20.3294 0.965428 21.3915 2.02753 20.9118 3.81735L17.9215 14.9759C17.4418 16.7657 15.602 18.6055 13.8122 19.0852L2.65363 22.0756C0.863807 22.5552 -0.198297 21.4931 0.281357 19.7033L3.27174 8.54472Z" fill="#6941C6"/>
<path d="M35.7537 18.3307H39.5921V19.8334H33.8917V8.48169H35.7537V18.3307Z" fill="#101828"/>
<path d="M40.5285 15.2927C40.5285 14.3889 40.7137 13.5886 41.0839 12.8917C41.465 12.1948 41.9768 11.6558 42.6192 11.2747C43.2725 10.8827 43.9912 10.6867 44.7752 10.6867C45.483 10.6867 46.0982 10.8282 46.6209 11.1114C47.1544 11.3836 47.5791 11.7266 47.8949 12.1404V10.8337H49.7732V19.8334H47.8949V18.494C47.5791 18.9187 47.149 19.2726 46.6045 19.5557C46.0601 19.8388 45.4394 19.9804 44.7425 19.9804C43.9694 19.9804 43.2617 19.7844 42.6192 19.3924C41.9768 18.9895 41.465 18.4341 41.0839 17.7264C40.7137 17.0077 40.5285 16.1965 40.5285 15.2927ZM47.8949 15.3254C47.8949 14.7047 47.7642 14.1657 47.5029 13.7084C47.2524 13.251 46.9203 12.9026 46.5065 12.663C46.0928 12.4235 45.6463 12.3037 45.1672 12.3037C44.6881 12.3037 44.2417 12.4235 43.8279 12.663C43.4141 12.8917 43.0765 13.2347 42.8152 13.692C42.5648 14.1385 42.4395 14.672 42.4395 15.2927C42.4395 15.9134 42.5648 16.4578 42.8152 16.926C43.0765 17.3942 43.4141 17.7536 43.8279 18.004C44.2525 18.2436 44.699 18.3634 45.1672 18.3634C45.6463 18.3634 46.0928 18.2436 46.5065 18.004C46.9203 17.7645 47.2524 17.416 47.5029 16.9587C47.7642 16.4905 47.8949 15.946 47.8949 15.3254Z" fill="#101828"/>
<path d="M60.3202 10.8337L54.7995 24.0637H52.8722L54.7015 19.6864L51.1572 10.8337H53.2315L55.7632 17.6937L58.3929 10.8337H60.3202Z" fill="#101828"/>
<path d="M69.9737 15.113C69.9737 15.4506 69.9519 15.7555 69.9084 16.0277H63.032C63.0865 16.7464 63.3533 17.3235 63.8324 17.759C64.3115 18.1946 64.8995 18.4124 65.5964 18.4124C66.5982 18.4124 67.3059 17.9931 67.7197 17.1547H69.7287C69.4565 17.9822 68.961 18.6628 68.2424 19.1964C67.5346 19.719 66.6526 19.9804 65.5964 19.9804C64.7362 19.9804 63.963 19.7898 63.277 19.4087C62.6019 19.0167 62.0684 18.4722 61.6764 17.7754C61.2953 17.0676 61.1047 16.2509 61.1047 15.3254C61.1047 14.3998 61.2898 13.5886 61.66 12.8917C62.0412 12.1839 62.5693 11.6395 63.2444 11.2584C63.9304 10.8772 64.7144 10.6867 65.5964 10.6867C66.4457 10.6867 67.2025 10.8718 67.8667 11.242C68.5309 11.6122 69.0482 12.1349 69.4184 12.81C69.7886 13.4742 69.9737 14.2419 69.9737 15.113ZM68.03 14.525C68.0192 13.839 67.7742 13.2891 67.295 12.8754C66.8159 12.4616 66.2225 12.2547 65.5147 12.2547C64.8723 12.2547 64.3224 12.4616 63.865 12.8754C63.4077 13.2782 63.1355 13.8281 63.0484 14.525H68.03Z" fill="#101828"/>
<path d="M73.6681 12.1404C73.9403 11.683 74.2997 11.3291 74.7461 11.0787C75.2034 10.8174 75.7424 10.6867 76.3631 10.6867V12.614H75.8894C75.1599 12.614 74.6045 12.7991 74.2234 13.1694C73.8532 13.5396 73.6681 14.182 73.6681 15.0967V19.8334H71.8061V10.8337H73.6681V12.1404Z" fill="#101828"/>
<path d="M81.3413 19.9804C80.6335 19.9804 79.9965 19.8551 79.4303 19.6047C78.875 19.3434 78.434 18.9949 78.1073 18.5594C77.7807 18.1129 77.6064 17.6175 77.5847 17.073H79.512C79.5447 17.4541 79.7243 17.7754 80.051 18.0367C80.3885 18.2871 80.8078 18.4124 81.3087 18.4124C81.8313 18.4124 82.2342 18.3144 82.5173 18.1184C82.8113 17.9115 82.9583 17.6501 82.9583 17.3344C82.9583 16.9968 82.795 16.7464 82.4683 16.583C82.1525 16.4197 81.6462 16.24 80.9493 16.044C80.2742 15.8589 79.7243 15.6792 79.2997 15.505C78.875 15.3308 78.5048 15.064 78.189 14.7047C77.8841 14.3454 77.7317 13.8717 77.7317 13.2837C77.7317 12.8046 77.8732 12.369 78.1563 11.977C78.4394 11.5741 78.8423 11.2584 79.365 11.0297C79.8985 10.801 80.5083 10.6867 81.1943 10.6867C82.2179 10.6867 83.04 10.948 83.6607 11.4707C84.2922 11.9825 84.6298 12.6848 84.6733 13.5777H82.8113C82.7787 13.1748 82.6153 12.8536 82.3213 12.614C82.0273 12.3745 81.6299 12.2547 81.129 12.2547C80.639 12.2547 80.2633 12.3472 80.002 12.5324C79.7407 12.7175 79.61 12.9625 79.61 13.2674C79.61 13.5069 79.6971 13.7084 79.8713 13.8717C80.0455 14.035 80.2579 14.1657 80.5083 14.2637C80.7588 14.3508 81.129 14.4651 81.619 14.6067C82.2723 14.7809 82.8059 14.9606 83.2197 15.1457C83.6443 15.3199 84.0091 15.5812 84.314 15.9297C84.6189 16.2781 84.7768 16.7409 84.7877 17.318C84.7877 17.8298 84.6461 18.2871 84.363 18.69C84.0799 19.0929 83.677 19.4087 83.1543 19.6374C82.6425 19.866 82.0382 19.9804 81.3413 19.9804Z" fill="#101828"/>
</g>
</svg>
