<svg width="86" height="28" viewBox="0 0 86 28" fill="none" xmlns="http://www.w3.org/2000/svg">
<path d="M8.4119 13.0171C8.89156 11.2273 10.7313 9.38753 12.5212 8.90788L23.6797 5.9175C25.4696 5.43784 26.5317 6.49994 26.052 8.28977L23.0616 19.4483C22.582 21.2382 20.7422 23.0779 18.9524 23.5576L7.7938 26.548C6.00397 27.0276 4.94187 25.9655 5.42152 24.1757L8.4119 13.0171Z" fill="#9E77ED"/>
<path d="M3.93842 8.54472C4.41808 6.75489 6.25785 4.91512 8.04768 4.43546L19.2063 1.44508C20.9961 0.965428 22.0582 2.02753 21.5785 3.81735L18.5882 14.9759C18.1085 16.7657 16.2687 18.6055 14.4789 19.0852L3.32032 22.0756C1.53049 22.5552 0.46839 21.4931 0.948044 19.7033L3.93842 8.54472Z" fill="#6941C6"/>
<path d="M36.4204 18.3307H40.2587V19.8334H34.5584V8.48169H36.4204V18.3307Z" fill="#101828"/>
<path d="M41.1952 15.2927C41.1952 14.3889 41.3803 13.5886 41.7506 12.8917C42.1317 12.1948 42.6435 11.6558 43.2859 11.2747C43.9392 10.8827 44.6579 10.6867 45.4419 10.6867C46.1497 10.6867 46.7649 10.8282 47.2876 11.1114C47.8211 11.3836 48.2458 11.7266 48.5616 12.1404V10.8337H50.4399V19.8334H48.5616V18.494C48.2458 18.9187 47.8157 19.2726 47.2712 19.5557C46.7268 19.8388 46.1061 19.9804 45.4092 19.9804C44.6361 19.9804 43.9283 19.7844 43.2859 19.3924C42.6435 18.9895 42.1317 18.4341 41.7506 17.7264C41.3803 17.0077 41.1952 16.1965 41.1952 15.2927ZM48.5616 15.3254C48.5616 14.7047 48.4309 14.1657 48.1696 13.7084C47.9191 13.251 47.587 12.9026 47.1732 12.663C46.7594 12.4235 46.313 12.3037 45.8339 12.3037C45.3548 12.3037 44.9083 12.4235 44.4946 12.663C44.0808 12.8917 43.7432 13.2347 43.4819 13.692C43.2315 14.1385 43.1062 14.672 43.1062 15.2927C43.1062 15.9134 43.2315 16.4578 43.4819 16.926C43.7432 17.3942 44.0808 17.7536 44.4946 18.004C44.9192 18.2436 45.3657 18.3634 45.8339 18.3634C46.313 18.3634 46.7594 18.2436 47.1732 18.004C47.587 17.7645 47.9191 17.416 48.1696 16.9587C48.4309 16.4905 48.5616 15.946 48.5616 15.3254Z" fill="#101828"/>
<path d="M60.9869 10.8337L55.4662 24.0637H53.5389L55.3682 19.6864L51.8239 10.8337H53.8982L56.4299 17.6937L59.0596 10.8337H60.9869Z" fill="#101828"/>
<path d="M70.6404 15.113C70.6404 15.4506 70.6186 15.7555 70.5751 16.0277H63.6987C63.7532 16.7464 64.02 17.3235 64.4991 17.759C64.9782 18.1946 65.5662 18.4124 66.2631 18.4124C67.2648 18.4124 67.9726 17.9931 68.3864 17.1547H70.3954C70.1232 17.9822 69.6277 18.6628 68.9091 19.1964C68.2013 19.719 67.3193 19.9804 66.2631 19.9804C65.4028 19.9804 64.6297 19.7898 63.9437 19.4087C63.2686 19.0167 62.7351 18.4722 62.3431 17.7754C61.962 17.0676 61.7714 16.2509 61.7714 15.3254C61.7714 14.3998 61.9565 13.5886 62.3267 12.8917C62.7078 12.1839 63.236 11.6395 63.9111 11.2584C64.5971 10.8772 65.3811 10.6867 66.2631 10.6867C67.1124 10.6867 67.8692 10.8718 68.5334 11.242C69.1976 11.6122 69.7148 12.1349 70.0851 12.81C70.4553 13.4742 70.6404 14.2419 70.6404 15.113ZM68.6967 14.525C68.6858 13.839 68.4408 13.2891 67.9617 12.8754C67.4826 12.4616 66.8892 12.2547 66.1814 12.2547C65.539 12.2547 64.9891 12.4616 64.5317 12.8754C64.0744 13.2782 63.8022 13.8281 63.7151 14.525H68.6967Z" fill="#101828"/>
<path d="M74.3348 12.1404C74.607 11.683 74.9663 11.3291 75.4128 11.0787C75.8701 10.8174 76.4091 10.6867 77.0298 10.6867V12.614H76.5561C75.8266 12.614 75.2712 12.7991 74.8901 13.1694C74.5199 13.5396 74.3348 14.182 74.3348 15.0967V19.8334H72.4728V10.8337H74.3348V12.1404Z" fill="#101828"/>
<path d="M82.008 19.9804C81.3002 19.9804 80.6632 19.8551 80.097 19.6047C79.5417 19.3434 79.1007 18.9949 78.774 18.5594C78.4473 18.1129 78.2731 17.6175 78.2513 17.073H80.1787C80.2113 17.4541 80.391 17.7754 80.7177 18.0367C81.0552 18.2871 81.4745 18.4124 81.9753 18.4124C82.498 18.4124 82.9009 18.3144 83.184 18.1184C83.478 17.9115 83.625 17.6501 83.625 17.3344C83.625 16.9968 83.4617 16.7464 83.135 16.583C82.8192 16.4197 82.3129 16.24 81.616 16.044C80.9409 15.8589 80.391 15.6792 79.9663 15.505C79.5417 15.3308 79.1715 15.064 78.8557 14.7047C78.5508 14.3454 78.3983 13.8717 78.3983 13.2837C78.3983 12.8046 78.5399 12.369 78.823 11.977C79.1061 11.5741 79.509 11.2584 80.0317 11.0297C80.5652 10.801 81.175 10.6867 81.861 10.6867C82.8846 10.6867 83.7067 10.948 84.3273 11.4707C84.9589 11.9825 85.2965 12.6848 85.34 13.5777H83.478C83.4453 13.1748 83.282 12.8536 82.988 12.614C82.694 12.3745 82.2966 12.2547 81.7957 12.2547C81.3057 12.2547 80.93 12.3472 80.6687 12.5324C80.4073 12.7175 80.2767 12.9625 80.2767 13.2674C80.2767 13.5069 80.3638 13.7084 80.538 13.8717C80.7122 14.035 80.9246 14.1657 81.175 14.2637C81.4255 14.3508 81.7957 14.4651 82.2857 14.6067C82.939 14.7809 83.4726 14.9606 83.8863 15.1457C84.311 15.3199 84.6758 15.5812 84.9807 15.9297C85.2856 16.2781 85.4435 16.7409 85.4543 17.318C85.4543 17.8298 85.3128 18.2871 85.0297 18.69C84.7466 19.0929 84.3437 19.4087 83.821 19.6374C83.3092 19.866 82.7049 19.9804 82.008 19.9804Z" fill="#101828"/>
</svg>
