<svg width="110" height="28" viewBox="0 0 110 28" fill="none" xmlns="http://www.w3.org/2000/svg">
<g style="mix-blend-mode:luminosity">
<path fill-rule="evenodd" clip-rule="evenodd" d="M13.6667 21.2721C17.683 21.2721 20.9389 18.0162 20.9389 13.9999C20.9389 9.98356 17.683 6.72768 13.6667 6.72768C9.65037 6.72768 6.39448 9.98356 6.39448 13.9999C6.39448 18.0162 9.65037 21.2721 13.6667 21.2721ZM13.6667 26.8332C20.7544 26.8332 26.5 21.0876 26.5 13.9999C26.5 6.91224 20.7544 1.16656 13.6667 1.16656C6.57905 1.16656 0.833374 6.91224 0.833374 13.9999C0.833374 21.0876 6.57905 26.8332 13.6667 26.8332Z" fill="#6938EF"/>
<path d="M13.8135 14.2812C15.1499 12.9447 17.3168 12.9447 18.6532 14.2812L25.3079 20.9359C26.6443 22.2723 26.6443 24.4392 25.3079 25.7756V25.7756C23.9714 27.1121 21.8046 27.1121 20.4681 25.7756L13.8135 19.121C12.477 17.7845 12.477 15.6177 13.8135 14.2812V14.2812Z" fill="#F670C7"/>
<path d="M15.682 20.9891L19.9084 25.2155C21.9356 24.0849 23.6245 22.4207 24.7852 20.4128L20.5933 16.2209C19.8571 18.5189 18.0089 20.3193 15.682 20.9891Z" fill="#6519BA"/>
<path d="M47.2201 21.0588C46.8499 21.5162 46.398 21.8646 45.8644 22.1042C45.3418 22.3437 44.7647 22.4635 44.1331 22.4635C43.2838 22.4635 42.5161 22.2784 41.8301 21.9082C41.1441 21.5488 40.3601 20.9064 39.4781 19.9808C38.4437 19.8502 37.5181 19.518 36.7014 18.9845C35.8957 18.4509 35.2641 17.7649 34.8068 16.9265C34.3603 16.0772 34.1371 15.1407 34.1371 14.1172C34.1371 12.9956 34.4039 11.9884 34.9374 11.0955C35.4819 10.1917 36.2278 9.48394 37.1751 8.97216C38.1333 8.46038 39.2059 8.20449 40.3928 8.20449C41.5797 8.20449 42.6468 8.46038 43.5941 8.97216C44.5414 9.48394 45.2873 10.1917 45.8318 11.0955C46.3762 11.9884 46.6484 12.9956 46.6484 14.1172C46.6484 15.4456 46.2728 16.6107 45.5214 17.6125C44.781 18.6143 43.7956 19.3112 42.5651 19.7032C42.8373 19.9863 43.0987 20.1877 43.3491 20.3075C43.6104 20.4382 43.8881 20.5035 44.1821 20.5035C44.8899 20.5035 45.5106 20.2204 46.0441 19.6542L47.2201 21.0588ZM36.8158 14.1172C36.8158 14.8249 36.9682 15.4565 37.2731 16.0118C37.5889 16.5672 38.019 17.0027 38.5634 17.3185C39.1079 17.6234 39.7177 17.7758 40.3928 17.7758C41.0679 17.7758 41.6777 17.6234 42.2221 17.3185C42.7666 17.0027 43.1912 16.5672 43.4961 16.0118C43.8119 15.4565 43.9698 14.8249 43.9698 14.1172C43.9698 13.4094 43.8119 12.7778 43.4961 12.2225C43.1912 11.6672 42.7666 11.237 42.2221 10.9322C41.6777 10.6164 41.0679 10.4585 40.3928 10.4585C39.7177 10.4585 39.1079 10.6164 38.5634 10.9322C38.019 11.237 37.5889 11.6672 37.2731 12.2225C36.9682 12.7778 36.8158 13.4094 36.8158 14.1172Z" fill="#101828"/>
<path d="M57.31 11.0465V19.8338H54.8927V18.7885C54.5551 19.1696 54.1523 19.4636 53.684 19.6705C53.2158 19.8665 52.7095 19.9645 52.165 19.9645C51.0108 19.9645 50.0961 19.6324 49.421 18.9682C48.7459 18.3039 48.4084 17.3185 48.4084 16.0118V11.0465H50.9564V15.6362C50.9564 17.0517 51.5498 17.7595 52.7367 17.7595C53.3465 17.7595 53.8365 17.5635 54.2067 17.1715C54.5769 16.7686 54.762 16.1752 54.762 15.3912V11.0465H57.31Z" fill="#101828"/>
<path d="M63.8519 19.9645C62.9264 19.9645 62.0934 19.7739 61.3529 19.3928C60.6234 19.0008 60.0517 18.4618 59.6379 17.7758C59.2241 17.0898 59.0172 16.3113 59.0172 15.4402C59.0172 14.569 59.2241 13.7905 59.6379 13.1045C60.0517 12.4185 60.6234 11.8849 61.3529 11.5038C62.0934 11.1118 62.9264 10.9158 63.8519 10.9158C64.7775 10.9158 65.605 11.1118 66.3346 11.5038C67.0641 11.8849 67.6358 12.4185 68.0496 13.1045C68.4634 13.7905 68.6702 14.569 68.6702 15.4402C68.6702 16.3113 68.4634 17.0898 68.0496 17.7758C67.6358 18.4618 67.0641 19.0008 66.3346 19.3928C65.605 19.7739 64.7775 19.9645 63.8519 19.9645ZM63.8519 17.8738C64.5052 17.8738 65.0388 17.656 65.4526 17.2205C65.8772 16.774 66.0896 16.1806 66.0896 15.4402C66.0896 14.6997 65.8772 14.1117 65.4526 13.6762C65.0388 13.2297 64.5052 13.0065 63.8519 13.0065C63.1986 13.0065 62.6596 13.2297 62.2349 13.6762C61.8102 14.1117 61.5979 14.6997 61.5979 15.4402C61.5979 16.1806 61.8102 16.774 62.2349 17.2205C62.6596 17.656 63.1986 17.8738 63.8519 17.8738Z" fill="#101828"/>
<path d="M76.041 19.4092C75.7906 19.5943 75.4803 19.7358 75.11 19.8338C74.7507 19.9209 74.3696 19.9645 73.9667 19.9645C72.9214 19.9645 72.1102 19.6977 71.533 19.1642C70.9668 18.6306 70.6837 17.8466 70.6837 16.8122V13.2025H69.328V11.2425H70.6837V9.10283H73.2317V11.2425H75.4204V13.2025H73.2317V16.7795C73.2317 17.1497 73.3243 17.4383 73.5094 17.6452C73.7054 17.8412 73.9776 17.9392 74.326 17.9392C74.7289 17.9392 75.0719 17.8303 75.355 17.6125L76.041 19.4092Z" fill="#101828"/>
<path d="M77.4714 11.0465H80.0194V19.8338H77.4714V11.0465ZM78.7454 9.82149C78.2771 9.82149 77.896 9.68538 77.602 9.41316C77.308 9.14094 77.161 8.80338 77.161 8.40049C77.161 7.9976 77.308 7.66005 77.602 7.38783C77.896 7.1156 78.2771 6.97949 78.7454 6.97949C79.2136 6.97949 79.5947 7.11016 79.8887 7.37149C80.1827 7.63283 80.3297 7.95949 80.3297 8.35149C80.3297 8.77616 80.1827 9.13005 79.8887 9.41316C79.5947 9.68538 79.2136 9.82149 78.7454 9.82149Z" fill="#101828"/>
<path d="M90.9918 15.4728C90.9918 15.5055 90.9755 15.7342 90.9428 16.1588H84.2951C84.4149 16.7033 84.698 17.1334 85.1445 17.4492C85.5909 17.7649 86.1462 17.9228 86.8105 17.9228C87.2678 17.9228 87.6707 17.8575 88.0191 17.7268C88.3785 17.5853 88.7106 17.3675 89.0155 17.0735L90.3711 18.5435C89.5436 19.4908 88.3349 19.9645 86.7451 19.9645C85.7542 19.9645 84.8777 19.7739 84.1155 19.3928C83.3532 19.0008 82.7652 18.4618 82.3515 17.7758C81.9377 17.0898 81.7308 16.3113 81.7308 15.4402C81.7308 14.5799 81.9322 13.8068 82.3351 13.1208C82.7489 12.4239 83.3097 11.8849 84.0175 11.5038C84.7361 11.1118 85.5365 10.9158 86.4185 10.9158C87.2787 10.9158 88.0572 11.1009 88.7541 11.4712C89.451 11.8414 89.9955 12.3749 90.3875 13.0718C90.7903 13.7578 90.9918 14.5582 90.9918 15.4728ZM86.4348 12.8432C85.8577 12.8432 85.3731 13.0065 84.9811 13.3332C84.5891 13.6598 84.3496 14.1063 84.2625 14.6725H88.5908C88.5037 14.1172 88.2641 13.6762 87.8721 13.3495C87.4801 13.0119 87.001 12.8432 86.4348 12.8432Z" fill="#101828"/>
<path d="M98.0292 10.9158C99.118 10.9158 99.9946 11.2425 100.659 11.8958C101.334 12.5492 101.671 13.5183 101.671 14.8032V19.8338H99.1235V15.1952C99.1235 14.4983 98.971 13.981 98.6662 13.6435C98.3613 13.295 97.9203 13.1208 97.3432 13.1208C96.7007 13.1208 96.1889 13.3223 95.8078 13.7252C95.4267 14.1172 95.2362 14.7052 95.2362 15.4892V19.8338H92.6882V11.0465H95.1218V12.0755C95.4594 11.7053 95.8786 11.4222 96.3795 11.2262C96.8804 11.0193 97.4303 10.9158 98.0292 10.9158Z" fill="#101828"/>
<path d="M109.649 19.4092C109.398 19.5943 109.088 19.7358 108.718 19.8338C108.358 19.9209 107.977 19.9645 107.574 19.9645C106.529 19.9645 105.718 19.6977 105.141 19.1642C104.575 18.6306 104.291 17.8466 104.291 16.8122V13.2025H102.936V11.2425H104.291V9.10283H106.839V11.2425H109.028V13.2025H106.839V16.7795C106.839 17.1497 106.932 17.4383 107.117 17.6452C107.313 17.8412 107.585 17.9392 107.934 17.9392C108.337 17.9392 108.68 17.8303 108.963 17.6125L109.649 19.4092Z" fill="#101828"/>
</g>
</svg>
