<svg width="99" height="28" viewBox="0 0 99 28" fill="none" xmlns="http://www.w3.org/2000/svg">
<g style="mix-blend-mode:luminosity">
<rect x="0.166702" y="11.199" width="5.59999" height="5.59999" fill="#039855"/>
<rect x="16.9667" y="16.801" width="5.6" height="5.59999" transform="rotate(180 16.9667 16.801)" fill="#027A48"/>
<path d="M5.76683 11.2003L11.3668 5.60034V11.2003L5.76683 16.8003V11.2003Z" fill="#A6F4C5"/>
<path d="M11.3667 16.7997L5.76676 22.3997L5.76675 16.7997L11.3667 11.1997L11.3667 16.7997Z" fill="#6CE9A6"/>
<path d="M0.166672 11.2L11.3667 0V5.59999L5.76666 11.2H0.166672Z" fill="#32D583"/>
<path d="M16.9667 16.8L5.76667 28L5.76667 22.4L11.3667 16.8L16.9667 16.8Z" fill="#12B76A"/>
<path d="M29.163 19.9965C28.281 19.9965 27.4262 19.8713 26.5986 19.6209C25.782 19.3704 25.1341 19.0383 24.655 18.6245L25.39 16.9749C25.8582 17.3451 26.4298 17.65 27.105 17.8895C27.791 18.1182 28.477 18.2325 29.163 18.2325C30.0123 18.2325 30.6438 18.0964 31.0576 17.8242C31.4823 17.552 31.6946 17.1927 31.6946 16.7462C31.6946 16.4195 31.5748 16.1528 31.3353 15.9459C31.1066 15.7281 30.8126 15.5593 30.4533 15.4395C30.094 15.3198 29.604 15.1837 28.9833 15.0312C28.1122 14.8243 27.4044 14.6174 26.86 14.4105C26.3264 14.2037 25.8636 13.8824 25.4716 13.4469C25.0905 13.0004 24.9 12.4015 24.9 11.6502C24.9 11.0187 25.0687 10.447 25.4063 9.93521C25.7547 9.41254 26.272 8.99877 26.958 8.69388C27.6548 8.38899 28.5042 8.23654 29.506 8.23654C30.2028 8.23654 30.8888 8.32365 31.564 8.49788C32.2391 8.6721 32.8216 8.92254 33.3116 9.24921L32.642 10.8989C32.1411 10.6049 31.6184 10.3817 31.074 10.2292C30.5295 10.0768 30.0014 10.0005 29.4896 10.0005C28.6512 10.0005 28.0251 10.1421 27.6113 10.4252C27.2084 10.7083 27.007 11.084 27.007 11.5522C27.007 11.8789 27.1213 12.1457 27.35 12.3525C27.5895 12.5594 27.889 12.7228 28.2483 12.8425C28.6076 12.9623 29.0976 13.0984 29.7183 13.2509C30.5676 13.4469 31.2645 13.6538 31.809 13.8715C32.3534 14.0784 32.8162 14.3997 33.1973 14.8352C33.5893 15.2708 33.7853 15.8588 33.7853 16.5992C33.7853 17.2308 33.6111 17.8024 33.2626 18.3142C32.9251 18.826 32.4078 19.2343 31.711 19.5392C31.0141 19.8441 30.1647 19.9965 29.163 19.9965Z" fill="#101828"/>
<path d="M35.6948 11.1112H37.7364V19.8332H35.6948V11.1112ZM36.7238 9.67388C36.3535 9.67388 36.0432 9.55954 35.7928 9.33088C35.5423 9.09132 35.4171 8.79732 35.4171 8.44888C35.4171 8.10043 35.5423 7.81188 35.7928 7.58321C36.0432 7.34365 36.3535 7.22388 36.7238 7.22388C37.094 7.22388 37.4043 7.33821 37.6548 7.56688C37.9052 7.78465 38.0304 8.06232 38.0304 8.39988C38.0304 8.75921 37.9052 9.0641 37.6548 9.31454C37.4152 9.5541 37.1049 9.67388 36.7238 9.67388Z" fill="#101828"/>
<path d="M43.1111 19.9475C42.4033 19.9475 41.7119 19.855 41.0368 19.6699C40.3617 19.4848 39.8227 19.2507 39.4198 18.9675L40.2038 17.4159C40.5958 17.6772 41.064 17.8895 41.6084 18.0529C42.1638 18.2053 42.7082 18.2815 43.2418 18.2815C44.4613 18.2815 45.0711 17.9603 45.0711 17.3179C45.0711 17.013 44.9132 16.8007 44.5974 16.6809C44.2925 16.5611 43.7971 16.4468 43.1111 16.3379C42.3924 16.229 41.8044 16.1038 41.3471 15.9622C40.9007 15.8207 40.5087 15.5757 40.1711 15.2272C39.8444 14.8679 39.6811 14.3724 39.6811 13.7409C39.6811 12.9133 40.0241 12.2545 40.7101 11.7645C41.407 11.2637 42.3434 11.0132 43.5194 11.0132C44.1183 11.0132 44.7172 11.084 45.3161 11.2255C45.915 11.3562 46.405 11.5359 46.7861 11.7645L46.0021 13.3162C45.2617 12.8807 44.4287 12.6629 43.5031 12.6629C42.9042 12.6629 42.4469 12.7554 42.1311 12.9405C41.8262 13.1148 41.6738 13.3489 41.6738 13.6429C41.6738 13.9695 41.8371 14.2037 42.1638 14.3452C42.5013 14.4759 43.0185 14.6011 43.7154 14.7209C44.4123 14.8298 44.984 14.955 45.4304 15.0965C45.8769 15.2381 46.258 15.4777 46.5738 15.8152C46.9004 16.1528 47.0638 16.6319 47.0638 17.2525C47.0638 18.0692 46.7099 18.7225 46.0021 19.2125C45.2943 19.7025 44.3307 19.9475 43.1111 19.9475Z" fill="#101828"/>
<path d="M56.8292 11.1112L52.7459 20.5355C52.3647 21.4829 51.902 22.1471 51.3575 22.5282C50.8131 22.9202 50.1543 23.1162 49.3812 23.1162C48.9456 23.1162 48.5155 23.0454 48.0909 22.9039C47.6662 22.7623 47.3177 22.5663 47.0455 22.3159L47.8622 20.8132C48.0582 20.9983 48.2869 21.1453 48.5482 21.2542C48.8204 21.3631 49.0926 21.4175 49.3649 21.4175C49.7242 21.4175 50.0182 21.325 50.2469 21.1399C50.4864 20.9548 50.7042 20.6444 50.9002 20.2089L51.0472 19.8659L47.2415 11.1112H49.3649L52.1089 17.5629L54.8692 11.1112H56.8292Z" fill="#101828"/>
<path d="M62.9399 11.0132C63.7892 11.0132 64.546 11.1983 65.2102 11.5685C65.8853 11.9388 66.4134 12.4614 66.7946 13.1365C67.1757 13.8117 67.3662 14.5902 67.3662 15.4722C67.3662 16.3542 67.1757 17.1382 66.7946 17.8242C66.4134 18.4993 65.8853 19.022 65.2102 19.3922C64.546 19.7624 63.7892 19.9475 62.9399 19.9475C61.7639 19.9475 60.8329 19.5555 60.1469 18.7715V23.0019H58.1052V11.1112H60.0489V12.2545C60.3864 11.8408 60.8002 11.5304 61.2902 11.3235C61.7911 11.1167 62.341 11.0132 62.9399 11.0132ZM62.7112 18.1999C63.4626 18.1999 64.0778 17.9494 64.5569 17.4485C65.0469 16.9477 65.2919 16.2889 65.2919 15.4722C65.2919 14.6555 65.0469 13.9968 64.5569 13.4959C64.0778 12.995 63.4626 12.7445 62.7112 12.7445C62.2212 12.7445 61.7802 12.8589 61.3882 13.0875C60.9962 13.3053 60.6859 13.6211 60.4572 14.0349C60.2286 14.4487 60.1142 14.9278 60.1142 15.4722C60.1142 16.0167 60.2286 16.4958 60.4572 16.9095C60.6859 17.3233 60.9962 17.6445 61.3882 17.8732C61.7802 18.091 62.2212 18.1999 62.7112 18.1999Z" fill="#101828"/>
<path d="M74.2515 11.0132C75.3513 11.0132 76.2333 11.3344 76.8975 11.9769C77.5617 12.6193 77.8938 13.5721 77.8938 14.8352V19.8332H75.8522V15.0965C75.8522 14.3343 75.6725 13.7627 75.3131 13.3815C74.9538 12.9895 74.442 12.7935 73.7778 12.7935C73.0265 12.7935 72.433 13.0222 71.9975 13.4795C71.5619 13.926 71.3441 14.5739 71.3441 15.4232V19.8332H69.3025V7.71388H71.3441V12.1239C71.6817 11.7645 72.0955 11.4923 72.5855 11.3072C73.0864 11.1112 73.6417 11.0132 74.2515 11.0132Z" fill="#101828"/>
<path d="M88.9281 11.1112V19.8332H86.9845V18.7225C86.6578 19.1145 86.2495 19.4194 85.7595 19.6372C85.2695 19.8441 84.7414 19.9475 84.1751 19.9475C83.01 19.9475 82.0899 19.6263 81.4148 18.9839C80.7506 18.3305 80.4185 17.3669 80.4185 16.0929V11.1112H82.4601V15.8152C82.4601 16.5992 82.6344 17.1872 82.9828 17.5792C83.3421 17.9603 83.8485 18.1509 84.5018 18.1509C85.2313 18.1509 85.8085 17.9277 86.2331 17.4812C86.6687 17.0239 86.8865 16.3705 86.8865 15.5212V11.1112H88.9281Z" fill="#101828"/>
<path d="M94.2963 19.9475C93.5885 19.9475 92.8971 19.855 92.222 19.6699C91.5469 19.4848 91.0079 19.2507 90.605 18.9675L91.389 17.4159C91.781 17.6772 92.2492 17.8895 92.7936 18.0529C93.349 18.2053 93.8934 18.2815 94.427 18.2815C95.6465 18.2815 96.2563 17.9603 96.2563 17.3179C96.2563 17.013 96.0984 16.8007 95.7826 16.6809C95.4778 16.5611 94.9823 16.4468 94.2963 16.3379C93.5776 16.229 92.9896 16.1038 92.5323 15.9622C92.0859 15.8207 91.6939 15.5757 91.3563 15.2272C91.0296 14.8679 90.8663 14.3724 90.8663 13.7409C90.8663 12.9133 91.2093 12.2545 91.8953 11.7645C92.5922 11.2637 93.5286 11.0132 94.7046 11.0132C95.3035 11.0132 95.9024 11.084 96.5013 11.2255C97.1002 11.3562 97.5902 11.5359 97.9713 11.7645L97.1873 13.3162C96.4469 12.8807 95.6139 12.6629 94.6883 12.6629C94.0894 12.6629 93.6321 12.7554 93.3163 12.9405C93.0114 13.1148 92.859 13.3489 92.859 13.6429C92.859 13.9695 93.0223 14.2037 93.349 14.3452C93.6865 14.4759 94.2038 14.6011 94.9006 14.7209C95.5975 14.8298 96.1692 14.955 96.6156 15.0965C97.0621 15.2381 97.4432 15.4777 97.759 15.8152C98.0856 16.1528 98.249 16.6319 98.249 17.2525C98.249 18.0692 97.8951 18.7225 97.1873 19.2125C96.4795 19.7025 95.5159 19.9475 94.2963 19.9475Z" fill="#101828"/>
</g>
</svg>
