<svg width="100" height="28" viewBox="0 0 100 28" fill="none" xmlns="http://www.w3.org/2000/svg">
<rect x="0.833389" y="11.199" width="5.59999" height="5.59999" fill="#039855"/>
<rect x="17.6333" y="16.801" width="5.6" height="5.59999" transform="rotate(180 17.6333 16.801)" fill="#027A48"/>
<path d="M6.43352 11.2003L12.0335 5.60034V11.2003L6.43352 16.8003V11.2003Z" fill="#A6F4C5"/>
<path d="M12.0334 16.7997L6.43344 22.3997L6.43344 16.7997L12.0334 11.1997L12.0334 16.7997Z" fill="#6CE9A6"/>
<path d="M0.833359 11.2L12.0333 0V5.59999L6.43335 11.2H0.833359Z" fill="#32D583"/>
<path d="M17.6333 16.8L6.43336 28L6.43336 22.4L12.0334 16.8L17.6333 16.8Z" fill="#12B76A"/>
<path d="M29.8296 19.9965C28.9476 19.9965 28.0929 19.8713 27.2653 19.6209C26.4486 19.3704 25.8008 19.0383 25.3216 18.6245L26.0566 16.9749C26.5249 17.3451 27.0965 17.65 27.7716 17.8895C28.4576 18.1182 29.1436 18.2325 29.8296 18.2325C30.679 18.2325 31.3105 18.0964 31.7243 17.8242C32.149 17.552 32.3613 17.1927 32.3613 16.7462C32.3613 16.4195 32.2415 16.1528 32.002 15.9459C31.7733 15.7281 31.4793 15.5593 31.12 15.4395C30.7606 15.3198 30.2706 15.1837 29.65 15.0312C28.7789 14.8243 28.0711 14.6174 27.5266 14.4105C26.9931 14.2037 26.5303 13.8824 26.1383 13.4469C25.7572 13.0004 25.5666 12.4015 25.5666 11.6502C25.5666 11.0187 25.7354 10.447 26.073 9.93521C26.4214 9.41254 26.9386 8.99877 27.6246 8.69388C28.3215 8.38899 29.1709 8.23654 30.1726 8.23654C30.8695 8.23654 31.5555 8.32365 32.2306 8.49788C32.9057 8.6721 33.4883 8.92254 33.9783 9.24921L33.3086 10.8989C32.8077 10.6049 32.2851 10.3817 31.7406 10.2292C31.1962 10.0768 30.6681 10.0005 30.1563 10.0005C29.3179 10.0005 28.6918 10.1421 28.278 10.4252C27.8751 10.7083 27.6736 11.084 27.6736 11.5522C27.6736 11.8789 27.788 12.1457 28.0166 12.3525C28.2562 12.5594 28.5556 12.7228 28.915 12.8425C29.2743 12.9623 29.7643 13.0984 30.385 13.2509C31.2343 13.4469 31.9312 13.6538 32.4756 13.8715C33.0201 14.0784 33.4829 14.3997 33.864 14.8352C34.256 15.2708 34.452 15.8588 34.452 16.5992C34.452 17.2308 34.2777 17.8024 33.9293 18.3142C33.5917 18.826 33.0745 19.2343 32.3776 19.5392C31.6807 19.8441 30.8314 19.9965 29.8296 19.9965Z" fill="#101828"/>
<path d="M36.3614 11.1112H38.4031V19.8332H36.3614V11.1112ZM37.3904 9.67388C37.0202 9.67388 36.7099 9.55954 36.4594 9.33088C36.209 9.09132 36.0838 8.79732 36.0838 8.44888C36.0838 8.10043 36.209 7.81188 36.4594 7.58321C36.7099 7.34365 37.0202 7.22388 37.3904 7.22388C37.7607 7.22388 38.071 7.33821 38.3214 7.56688C38.5719 7.78465 38.6971 8.06232 38.6971 8.39988C38.6971 8.75921 38.5719 9.0641 38.3214 9.31454C38.0819 9.5541 37.7715 9.67388 37.3904 9.67388Z" fill="#101828"/>
<path d="M43.7778 19.9475C43.07 19.9475 42.3786 19.855 41.7035 19.6699C41.0283 19.4848 40.4893 19.2507 40.0865 18.9675L40.8705 17.4159C41.2625 17.6772 41.7307 17.8895 42.2751 18.0529C42.8305 18.2053 43.3749 18.2815 43.9085 18.2815C45.128 18.2815 45.7378 17.9603 45.7378 17.3179C45.7378 17.013 45.5799 16.8007 45.2641 16.6809C44.9592 16.5611 44.4638 16.4468 43.7778 16.3379C43.0591 16.229 42.4711 16.1038 42.0138 15.9622C41.5673 15.8207 41.1753 15.5757 40.8378 15.2272C40.5111 14.8679 40.3478 14.3724 40.3478 13.7409C40.3478 12.9133 40.6908 12.2545 41.3768 11.7645C42.0737 11.2637 43.0101 11.0132 44.1861 11.0132C44.785 11.0132 45.3839 11.084 45.9828 11.2255C46.5817 11.3562 47.0717 11.5359 47.4528 11.7645L46.6688 13.3162C45.9283 12.8807 45.0953 12.6629 44.1698 12.6629C43.5709 12.6629 43.1136 12.7554 42.7978 12.9405C42.4929 13.1148 42.3405 13.3489 42.3405 13.6429C42.3405 13.9695 42.5038 14.2037 42.8305 14.3452C43.168 14.4759 43.6852 14.6011 44.3821 14.7209C45.079 14.8298 45.6507 14.955 46.0971 15.0965C46.5436 15.2381 46.9247 15.4777 47.2405 15.8152C47.5671 16.1528 47.7305 16.6319 47.7305 17.2525C47.7305 18.0692 47.3766 18.7225 46.6688 19.2125C45.961 19.7025 44.9973 19.9475 43.7778 19.9475Z" fill="#101828"/>
<path d="M57.4959 11.1112L53.4125 20.5355C53.0314 21.4829 52.5687 22.1471 52.0242 22.5282C51.4798 22.9202 50.821 23.1162 50.0479 23.1162C49.6123 23.1162 49.1822 23.0454 48.7575 22.9039C48.3329 22.7623 47.9844 22.5663 47.7122 22.3159L48.5289 20.8132C48.7249 20.9983 48.9535 21.1453 49.2149 21.2542C49.4871 21.3631 49.7593 21.4175 50.0315 21.4175C50.3909 21.4175 50.6849 21.325 50.9135 21.1399C51.1531 20.9548 51.3709 20.6444 51.5669 20.2089L51.7139 19.8659L47.9082 11.1112H50.0315L52.7755 17.5629L55.5359 11.1112H57.4959Z" fill="#101828"/>
<path d="M63.6066 11.0132C64.4559 11.0132 65.2127 11.1983 65.8769 11.5685C66.552 11.9388 67.0801 12.4614 67.4612 13.1365C67.8424 13.8117 68.0329 14.5902 68.0329 15.4722C68.0329 16.3542 67.8424 17.1382 67.4612 17.8242C67.0801 18.4993 66.552 19.022 65.8769 19.3922C65.2127 19.7624 64.4559 19.9475 63.6066 19.9475C62.4306 19.9475 61.4996 19.5555 60.8136 18.7715V23.0019H58.7719V11.1112H60.7156V12.2545C61.0531 11.8408 61.4669 11.5304 61.9569 11.3235C62.4578 11.1167 63.0077 11.0132 63.6066 11.0132ZM63.3779 18.1999C64.1292 18.1999 64.7445 17.9494 65.2236 17.4485C65.7136 16.9477 65.9586 16.2889 65.9586 15.4722C65.9586 14.6555 65.7136 13.9968 65.2236 13.4959C64.7445 12.995 64.1292 12.7445 63.3779 12.7445C62.8879 12.7445 62.4469 12.8589 62.0549 13.0875C61.6629 13.3053 61.3526 13.6211 61.1239 14.0349C60.8952 14.4487 60.7809 14.9278 60.7809 15.4722C60.7809 16.0167 60.8952 16.4958 61.1239 16.9095C61.3526 17.3233 61.6629 17.6445 62.0549 17.8732C62.4469 18.091 62.8879 18.1999 63.3779 18.1999Z" fill="#101828"/>
<path d="M74.9182 11.0132C76.0179 11.0132 76.8999 11.3344 77.5642 11.9769C78.2284 12.6193 78.5605 13.5721 78.5605 14.8352V19.8332H76.5188V15.0965C76.5188 14.3343 76.3392 13.7627 75.9798 13.3815C75.6205 12.9895 75.1087 12.7935 74.4445 12.7935C73.6932 12.7935 73.0997 13.0222 72.6642 13.4795C72.2286 13.926 72.0108 14.5739 72.0108 15.4232V19.8332H69.9692V7.71388H72.0108V12.1239C72.3484 11.7645 72.7622 11.4923 73.2522 11.3072C73.7531 11.1112 74.3084 11.0132 74.9182 11.0132Z" fill="#101828"/>
<path d="M89.5948 11.1112V19.8332H87.6511V18.7225C87.3245 19.1145 86.9161 19.4194 86.4262 19.6372C85.9361 19.8441 85.408 19.9475 84.8418 19.9475C83.6767 19.9475 82.7566 19.6263 82.0815 18.9839C81.4173 18.3305 81.0851 17.3669 81.0851 16.0929V11.1112H83.1268V15.8152C83.1268 16.5992 83.301 17.1872 83.6495 17.5792C84.0088 17.9603 84.5151 18.1509 85.1685 18.1509C85.898 18.1509 86.4751 17.9277 86.8998 17.4812C87.3354 17.0239 87.5532 16.3705 87.5532 15.5212V11.1112H89.5948Z" fill="#101828"/>
<path d="M94.963 19.9475C94.2552 19.9475 93.5638 19.855 92.8887 19.6699C92.2135 19.4848 91.6745 19.2507 91.2717 18.9675L92.0557 17.4159C92.4477 17.6772 92.9159 17.8895 93.4603 18.0529C94.0157 18.2053 94.5601 18.2815 95.0937 18.2815C96.3132 18.2815 96.923 17.9603 96.923 17.3179C96.923 17.013 96.7651 16.8007 96.4493 16.6809C96.1444 16.5611 95.649 16.4468 94.963 16.3379C94.2443 16.229 93.6563 16.1038 93.199 15.9622C92.7525 15.8207 92.3605 15.5757 92.023 15.2272C91.6963 14.8679 91.533 14.3724 91.533 13.7409C91.533 12.9133 91.876 12.2545 92.562 11.7645C93.2589 11.2637 94.1953 11.0132 95.3713 11.0132C95.9702 11.0132 96.5691 11.084 97.168 11.2255C97.7669 11.3562 98.2569 11.5359 98.638 11.7645L97.854 13.3162C97.1135 12.8807 96.2805 12.6629 95.355 12.6629C94.7561 12.6629 94.2988 12.7554 93.983 12.9405C93.6781 13.1148 93.5257 13.3489 93.5257 13.6429C93.5257 13.9695 93.689 14.2037 94.0157 14.3452C94.3532 14.4759 94.8704 14.6011 95.5673 14.7209C96.2642 14.8298 96.8359 14.955 97.2823 15.0965C97.7288 15.2381 98.1099 15.4777 98.4257 15.8152C98.7523 16.1528 98.9157 16.6319 98.9157 17.2525C98.9157 18.0692 98.5618 18.7225 97.854 19.2125C97.1462 19.7025 96.1825 19.9475 94.963 19.9475Z" fill="#101828"/>
</svg>
